<?xml version="1.0" encoding="UTF-8" standalone="no"?><!DOCTYPE svg PUBLIC "-//W3C//DTD SVG 1.1//EN" "http://www.w3.org/Graphics/SVG/1.1/DTD/svg11.dtd"><svg width="81px" height="14px" version="1.1" xmlns="http://www.w3.org/2000/svg" xmlns:xlink="http://www.w3.org/1999/xlink" xml:space="preserve" xmlns:serif="http://www.serif.com/" style="fill-rule:evenodd;clip-rule:evenodd;stroke-linejoin:round;stroke-miterlimit:2;"><g id="Shapes"><path d="M11.285,4.467c0,-1.242 -1.008,-2.25 -2.25,-2.25l-4.5,0c-1.242,0 -2.25,1.008 -2.25,2.25l0,4.518c0,1.242 1.008,2.25 2.25,2.25l4.5,0c1.242,0 2.25,-1.008 2.25,-2.25l0,-4.518Z" style="fill:#b8e0fe;"/><path d="M9.093,2.218l0.058,0.002l0.057,0.004l0.057,0.005l0.056,0.006l0.057,0.008l0.055,0.009l0.055,0.011l0.055,0.012l0.054,0.013l0.054,0.015l0.053,0.015l0.052,0.017l0.104,0.038l0.051,0.021l0.05,0.022l0.049,0.023l0.049,0.024l0.096,0.052l0.046,0.028l0.046,0.029l0.046,0.03l0.044,0.03l0.044,0.032l0.043,0.033l0.042,0.034l0.041,0.035l0.041,0.036l0.078,0.074l0.037,0.039l0.037,0.04l0.036,0.04l0.035,0.041l0.034,0.042l0.033,0.043l0.032,0.044l0.031,0.044l0.058,0.092l0.028,0.047l0.026,0.047l0.026,0.048l0.024,0.049l0.023,0.049l0.022,0.051l0.021,0.05l0.038,0.104l0.017,0.052l0.016,0.053l0.014,0.054l0.013,0.054l0.012,0.055l0.011,0.055l0.009,0.056l0.008,0.056l0.006,0.056l0.005,0.057l0.004,0.057l0.002,0.058l0.001,0.058l0,4.518l-0.001,0.058l-0.002,0.058l-0.004,0.057l-0.005,0.057l-0.006,0.056l-0.008,0.056l-0.009,0.056l-0.011,0.055l-0.012,0.055l-0.013,0.054l-0.014,0.054l-0.016,0.053l-0.017,0.052l-0.019,0.052l-0.019,0.052l-0.021,0.05l-0.022,0.05l-0.023,0.05l-0.024,0.049l-0.026,0.048l-0.026,0.047l-0.028,0.047l-0.029,0.046l-0.029,0.045l-0.031,0.045l-0.032,0.044l-0.033,0.043l-0.034,0.042l-0.035,0.041l-0.036,0.04l-0.037,0.04l-0.037,0.039l-0.039,0.037l-0.039,0.037l-0.041,0.036l-0.041,0.035l-0.042,0.034l-0.043,0.033l-0.044,0.032l-0.044,0.03l-0.046,0.03l-0.046,0.029l-0.046,0.028l-0.048,0.026l-0.048,0.026l-0.049,0.024l-0.049,0.023l-0.05,0.022l-0.051,0.021l-0.052,0.019l-0.052,0.019l-0.052,0.017l-0.053,0.015l-0.054,0.015l-0.054,0.013l-0.055,0.012l-0.055,0.011l-0.055,0.009l-0.057,0.008l-0.056,0.006l-0.057,0.005l-0.057,0.004l-0.058,0.002l-0.058,0.001l-4.5,0l-0.058,-0.001l-0.058,-0.002l-0.057,-0.004l-0.057,-0.005l-0.056,-0.006l-0.056,-0.008l-0.056,-0.009l-0.055,-0.011l-0.055,-0.012l-0.054,-0.013l-0.054,-0.015l-0.053,-0.015l-0.052,-0.017l-0.052,-0.019l-0.052,-0.019l-0.05,-0.021l-0.051,-0.022l-0.049,-0.023l-0.049,-0.024l-0.048,-0.026l-0.048,-0.026l-0.046,-0.028l-0.046,-0.029l-0.046,-0.03l-0.044,-0.03l-0.044,-0.032l-0.043,-0.033l-0.042,-0.034l-0.041,-0.035l-0.04,-0.036l-0.04,-0.037l-0.039,-0.037l-0.037,-0.039l-0.037,-0.04l-0.036,-0.04l-0.035,-0.041l-0.034,-0.042l-0.033,-0.043l-0.032,-0.044l-0.03,-0.045l-0.03,-0.045l-0.029,-0.046l-0.028,-0.047l-0.026,-0.047l-0.026,-0.048l-0.024,-0.049l-0.023,-0.05l-0.022,-0.05l-0.021,-0.05l-0.019,-0.052l-0.019,-0.052l-0.017,-0.052l-0.016,-0.053l-0.014,-0.054l-0.013,-0.054l-0.012,-0.055l-0.011,-0.055l-0.009,-0.056l-0.008,-0.056l-0.006,-0.056l-0.005,-0.057l-0.004,-0.057l-0.002,-0.058l-0.001,-0.058l0,-4.518l0.001,-0.058l0.002,-0.058l0.004,-0.057l0.005,-0.057l0.006,-0.056l0.008,-0.056l0.009,-0.056l0.011,-0.055l0.012,-0.055l0.013,-0.054l0.014,-0.054l0.016,-0.053l0.017,-0.052l0.019,-0.052l0.019,-0.052l0.021,-0.05l0.022,-0.051l0.023,-0.049l0.024,-0.049l0.026,-0.048l0.026,-0.047l0.028,-0.047l0.029,-0.046l0.03,-0.046l0.03,-0.044l0.032,-0.044l0.033,-0.043l0.034,-0.042l0.035,-0.041l0.036,-0.04l0.037,-0.04l0.037,-0.039l0.039,-0.037l0.04,-0.037l0.04,-0.036l0.041,-0.035l0.042,-0.034l0.043,-0.033l0.044,-0.032l0.044,-0.03l0.046,-0.03l0.046,-0.029l0.046,-0.028l0.048,-0.026l0.048,-0.026l0.049,-0.024l0.049,-0.023l0.051,-0.022l0.05,-0.021l0.052,-0.019l0.052,-0.019l0.052,-0.017l0.053,-0.015l0.054,-0.015l0.054,-0.013l0.055,-0.012l0.055,-0.011l0.056,-0.009l0.056,-0.008l0.056,-0.006l0.057,-0.005l0.057,-0.004l0.058,-0.002l0.058,-0.001l4.5,0l0.058,0.001Zm-4.553,0.799l-0.043,0.001l-0.037,0.001l-0.037,0.002l-0.037,0.004l-0.036,0.004l-0.036,0.005l-0.036,0.006l-0.036,0.007l-0.035,0.007l-0.034,0.009l-0.035,0.009l-0.034,0.01l-0.034,0.011l-0.033,0.012l-0.033,0.012l-0.033,0.014l-0.032,0.014l-0.032,0.015l-0.031,0.015l-0.031,0.017l-0.031,0.017l-0.03,0.018l-0.029,0.018l-0.03,0.019l-0.028,0.02l-0.029,0.021l-0.027,0.021l-0.028,0.022l-0.026,0.023l-0.026,0.023l-0.026,0.024l-0.025,0.024l-0.024,0.025l-0.024,0.026l-0.023,0.026l-0.023,0.027l-0.022,0.027l-0.021,0.027l-0.021,0.029l-0.02,0.028l-0.019,0.03l-0.018,0.029l-0.018,0.03l-0.017,0.031l-0.017,0.031l-0.015,0.031l-0.015,0.032l-0.014,0.032l-0.014,0.033l-0.012,0.033l-0.012,0.033l-0.011,0.034l-0.01,0.034l-0.009,0.035l-0.009,0.034l-0.007,0.035l-0.007,0.036l-0.006,0.036l-0.005,0.036l-0.004,0.036l-0.004,0.037l-0.002,0.037l-0.001,0.037l-0.001,0.043l0,4.508l0.001,0.043l0.001,0.037l0.002,0.037l0.004,0.037l0.004,0.036l0.005,0.036l0.006,0.036l0.007,0.036l0.007,0.035l0.009,0.034l0.009,0.035l0.01,0.034l0.011,0.034l0.024,0.066l0.014,0.032l0.014,0.033l0.015,0.032l0.015,0.031l0.017,0.031l0.017,0.03l0.018,0.031l0.018,0.029l0.019,0.03l0.02,0.028l0.042,0.056l0.022,0.027l0.023,0.027l0.023,0.026l0.024,0.026l0.024,0.025l0.025,0.024l0.026,0.024l0.052,0.046l0.028,0.022l0.027,0.021l0.029,0.021l0.028,0.019l0.03,0.02l0.029,0.018l0.03,0.018l0.062,0.034l0.031,0.015l0.032,0.015l0.032,0.014l0.066,0.026l0.033,0.012l0.034,0.011l0.034,0.01l0.035,0.009l0.034,0.009l0.035,0.007l0.036,0.007l0.036,0.006l0.036,0.005l0.036,0.004l0.037,0.004l0.037,0.002l0.037,0.001l0.043,0.001l4.49,0l0.043,-0.001l0.037,-0.001l0.037,-0.002l0.037,-0.004l0.036,-0.004l0.037,-0.005l0.035,-0.006l0.036,-0.007l0.035,-0.007l0.035,-0.009l0.034,-0.009l0.034,-0.01l0.034,-0.011l0.033,-0.012l0.033,-0.013l0.033,-0.013l0.032,-0.014l0.032,-0.015l0.031,-0.015l0.031,-0.017l0.031,-0.017l0.03,-0.018l0.029,-0.018l0.03,-0.019l0.028,-0.02l0.029,-0.021l0.027,-0.021l0.028,-0.022l0.026,-0.023l0.026,-0.023l0.026,-0.024l0.025,-0.024l0.024,-0.025l0.024,-0.026l0.023,-0.026l0.023,-0.027l0.022,-0.027l0.021,-0.028l0.021,-0.028l0.02,-0.028l0.019,-0.03l0.018,-0.029l0.018,-0.031l0.017,-0.03l0.017,-0.031l0.015,-0.031l0.015,-0.032l0.014,-0.033l0.014,-0.032l0.012,-0.033l0.012,-0.033l0.011,-0.034l0.01,-0.034l0.009,-0.035l0.009,-0.034l0.008,-0.035l0.006,-0.036l0.006,-0.036l0.005,-0.036l0.004,-0.036l0.004,-0.037l0.002,-0.037l0.002,-0.037l0,-0.043l0,-4.508l0,-0.043l-0.002,-0.037l-0.002,-0.037l-0.004,-0.037l-0.004,-0.036l-0.005,-0.036l-0.006,-0.036l-0.006,-0.036l-0.008,-0.035l-0.009,-0.034l-0.009,-0.035l-0.01,-0.034l-0.011,-0.034l-0.012,-0.033l-0.012,-0.033l-0.014,-0.033l-0.014,-0.032l-0.015,-0.032l-0.015,-0.031l-0.017,-0.031l-0.017,-0.031l-0.018,-0.03l-0.018,-0.029l-0.019,-0.03l-0.02,-0.028l-0.021,-0.029l-0.021,-0.027l-0.022,-0.027l-0.023,-0.027l-0.023,-0.026l-0.024,-0.026l-0.024,-0.025l-0.025,-0.024l-0.026,-0.024l-0.026,-0.023l-0.026,-0.023l-0.028,-0.022l-0.027,-0.021l-0.029,-0.021l-0.028,-0.02l-0.03,-0.019l-0.029,-0.018l-0.03,-0.018l-0.031,-0.017l-0.031,-0.017l-0.031,-0.015l-0.032,-0.015l-0.032,-0.014l-0.033,-0.014l-0.033,-0.012l-0.033,-0.012l-0.034,-0.011l-0.034,-0.01l-0.034,-0.009l-0.035,-0.009l-0.035,-0.007l-0.036,-0.007l-0.035,-0.006l-0.037,-0.005l-0.036,-0.004l-0.037,-0.004l-0.037,-0.002l-0.037,-0.001l-0.043,-0.001l-4.49,0Z" style="fill:#697e91;"/><path d="M24.732,4.467c0,-1.242 -1.009,-2.25 -2.25,-2.25l-4.5,0c-1.242,0 -2.25,1.008 -2.25,2.25l0,4.518c0,1.242 1.008,2.25 2.25,2.25l4.5,0c1.241,0 2.25,-1.008 2.25,-2.25l0,-4.518Z" style="fill:#fff;"/><path d="M22.54,2.218l0.057,0.002l0.058,0.004l0.057,0.005l0.056,0.006l0.056,0.008l0.056,0.009l0.055,0.011l0.055,0.012l0.054,0.013l0.106,0.03l0.053,0.017l0.052,0.019l0.051,0.019l0.051,0.021l0.05,0.022l0.05,0.023l0.049,0.024l0.048,0.026l0.047,0.026l0.047,0.028l0.046,0.029l0.09,0.06l0.043,0.032l0.043,0.033l0.042,0.034l0.042,0.035l0.04,0.036l0.04,0.037l0.038,0.037l0.038,0.039l0.037,0.04l0.036,0.04l0.035,0.041l0.033,0.042l0.033,0.043l0.032,0.044l0.031,0.044l0.03,0.046l0.029,0.046l0.054,0.094l0.025,0.048l0.025,0.049l0.023,0.049l0.022,0.051l0.02,0.05l0.02,0.052l0.018,0.052l0.017,0.052l0.016,0.053l0.015,0.054l0.013,0.054l0.012,0.055l0.01,0.055l0.01,0.056l0.008,0.056l0.006,0.056l0.005,0.057l0.004,0.057l0.002,0.058l0.001,0.058l0,4.518l-0.001,0.058l-0.002,0.058l-0.004,0.057l-0.005,0.057l-0.006,0.056l-0.008,0.056l-0.01,0.056l-0.01,0.055l-0.012,0.055l-0.013,0.054l-0.015,0.054l-0.016,0.053l-0.017,0.052l-0.018,0.052l-0.02,0.052l-0.02,0.05l-0.022,0.05l-0.023,0.05l-0.025,0.049l-0.025,0.048l-0.027,0.047l-0.027,0.047l-0.029,0.046l-0.03,0.045l-0.031,0.045l-0.032,0.044l-0.033,0.043l-0.033,0.042l-0.035,0.041l-0.036,0.04l-0.037,0.04l-0.038,0.039l-0.038,0.037l-0.04,0.037l-0.04,0.036l-0.042,0.035l-0.042,0.034l-0.043,0.033l-0.043,0.032l-0.045,0.03l-0.045,0.03l-0.046,0.029l-0.047,0.028l-0.047,0.026l-0.048,0.026l-0.049,0.024l-0.05,0.023l-0.05,0.022l-0.051,0.021l-0.051,0.019l-0.052,0.019l-0.053,0.017l-0.053,0.015l-0.053,0.015l-0.054,0.013l-0.055,0.012l-0.055,0.011l-0.056,0.009l-0.056,0.008l-0.056,0.006l-0.057,0.005l-0.058,0.004l-0.057,0.002l-0.058,0.001l-4.5,0l-0.058,-0.001l-0.058,-0.002l-0.057,-0.004l-0.057,-0.005l-0.057,-0.006l-0.056,-0.008l-0.055,-0.009l-0.056,-0.011l-0.054,-0.012l-0.054,-0.013l-0.054,-0.015l-0.053,-0.015l-0.053,-0.017l-0.052,-0.019l-0.051,-0.019l-0.051,-0.021l-0.05,-0.022l-0.049,-0.023l-0.049,-0.024l-0.048,-0.026l-0.048,-0.026l-0.047,-0.028l-0.046,-0.029l-0.045,-0.03l-0.045,-0.03l-0.043,-0.032l-0.043,-0.033l-0.042,-0.034l-0.041,-0.035l-0.041,-0.036l-0.039,-0.037l-0.039,-0.037l-0.038,-0.039l-0.037,-0.04l-0.035,-0.04l-0.035,-0.041l-0.034,-0.042l-0.033,-0.043l-0.032,-0.044l-0.031,-0.045l-0.03,-0.045l-0.028,-0.046l-0.028,-0.047l-0.027,-0.047l-0.025,-0.048l-0.024,-0.049l-0.023,-0.05l-0.022,-0.05l-0.021,-0.05l-0.02,-0.052l-0.018,-0.052l-0.017,-0.052l-0.016,-0.053l-0.014,-0.054l-0.014,-0.054l-0.012,-0.055l-0.01,-0.055l-0.009,-0.056l-0.008,-0.056l-0.007,-0.056l-0.005,-0.057l-0.003,-0.057l-0.003,-0.058l0,-0.058l0,-4.518l0,-0.058l0.003,-0.058l0.003,-0.057l0.005,-0.057l0.007,-0.056l0.008,-0.056l0.009,-0.056l0.01,-0.055l0.012,-0.055l0.014,-0.054l0.014,-0.054l0.016,-0.053l0.017,-0.052l0.018,-0.052l0.02,-0.052l0.021,-0.05l0.022,-0.051l0.023,-0.049l0.024,-0.049l0.025,-0.048l0.027,-0.047l0.028,-0.047l0.028,-0.046l0.03,-0.046l0.031,-0.044l0.032,-0.044l0.033,-0.043l0.034,-0.042l0.035,-0.041l0.035,-0.04l0.037,-0.04l0.038,-0.039l0.039,-0.037l0.039,-0.037l0.041,-0.036l0.041,-0.035l0.042,-0.034l0.043,-0.033l0.043,-0.032l0.045,-0.03l0.045,-0.03l0.046,-0.029l0.047,-0.028l0.048,-0.026l0.048,-0.026l0.049,-0.024l0.049,-0.023l0.05,-0.022l0.051,-0.021l0.051,-0.019l0.052,-0.019l0.053,-0.017l0.053,-0.015l0.054,-0.015l0.054,-0.013l0.054,-0.012l0.056,-0.011l0.055,-0.009l0.056,-0.008l0.057,-0.006l0.057,-0.005l0.057,-0.004l0.058,-0.002l0.058,-0.001l4.5,0l0.058,0.001Zm-4.553,0.799l-0.043,0.001l-0.038,0.001l-0.037,0.002l-0.036,0.004l-0.037,0.004l-0.036,0.005l-0.036,0.006l-0.035,0.007l-0.035,0.007l-0.035,0.009l-0.034,0.009l-0.034,0.01l-0.034,0.011l-0.033,0.012l-0.033,0.012l-0.033,0.014l-0.032,0.014l-0.032,0.015l-0.031,0.015l-0.031,0.017l-0.031,0.017l-0.03,0.018l-0.03,0.018l-0.029,0.019l-0.029,0.02l-0.028,0.021l-0.028,0.021l-0.027,0.022l-0.027,0.023l-0.026,0.023l-0.025,0.024l-0.025,0.024l-0.025,0.025l-0.024,0.026l-0.023,0.026l-0.022,0.027l-0.022,0.027l-0.021,0.027l-0.021,0.029l-0.02,0.028l-0.019,0.03l-0.019,0.029l-0.018,0.03l-0.017,0.031l-0.016,0.031l-0.016,0.031l-0.015,0.032l-0.014,0.032l-0.013,0.033l-0.013,0.033l-0.011,0.033l-0.011,0.034l-0.01,0.034l-0.01,0.035l-0.008,0.034l-0.008,0.035l-0.007,0.036l-0.006,0.036l-0.005,0.036l-0.004,0.036l-0.003,0.037l-0.002,0.037l-0.002,0.037l0,4.594l0.004,0.074l0.003,0.037l0.004,0.036l0.005,0.036l0.006,0.036l0.007,0.036l0.008,0.035l0.008,0.034l0.01,0.035l0.01,0.034l0.011,0.034l0.011,0.033l0.013,0.033l0.013,0.032l0.014,0.033l0.015,0.032l0.032,0.062l0.017,0.03l0.018,0.031l0.019,0.029l0.019,0.03l0.02,0.028l0.042,0.056l0.044,0.054l0.023,0.026l0.024,0.026l0.025,0.025l0.05,0.048l0.026,0.023l0.027,0.023l0.027,0.022l0.056,0.042l0.029,0.019l0.029,0.02l0.06,0.036l0.062,0.034l0.031,0.015l0.032,0.015l0.032,0.014l0.066,0.026l0.033,0.012l0.034,0.011l0.034,0.01l0.034,0.009l0.035,0.009l0.07,0.014l0.036,0.006l0.036,0.005l0.037,0.004l0.036,0.004l0.037,0.002l0.038,0.001l0.043,0.001l4.49,0l0.042,-0.001l0.038,-0.001l0.037,-0.002l0.037,-0.004l0.036,-0.004l0.036,-0.005l0.036,-0.006l0.035,-0.007l0.035,-0.007l0.035,-0.009l0.035,-0.009l0.034,-0.01l0.033,-0.011l0.034,-0.012l0.033,-0.013l0.032,-0.013l0.032,-0.014l0.032,-0.015l0.032,-0.015l0.031,-0.017l0.03,-0.017l0.03,-0.018l0.03,-0.018l0.029,-0.02l0.029,-0.019l0.028,-0.021l0.028,-0.021l0.027,-0.022l0.027,-0.023l0.026,-0.023l0.026,-0.024l0.025,-0.024l0.024,-0.025l0.024,-0.026l0.023,-0.026l0.023,-0.027l0.021,-0.027l0.022,-0.028l0.02,-0.028l0.02,-0.028l0.02,-0.03l0.018,-0.029l0.018,-0.031l0.017,-0.03l0.016,-0.031l0.016,-0.031l0.015,-0.032l0.014,-0.033l0.013,-0.032l0.013,-0.033l0.012,-0.033l0.01,-0.034l0.011,-0.034l0.009,-0.035l0.008,-0.034l0.008,-0.035l0.007,-0.036l0.006,-0.036l0.005,-0.036l0.004,-0.036l0.003,-0.037l0.003,-0.037l0.001,-0.037l0.001,-0.043l0,-4.508l-0.001,-0.043l-0.001,-0.037l-0.003,-0.037l-0.003,-0.037l-0.004,-0.036l-0.005,-0.036l-0.006,-0.036l-0.007,-0.036l-0.008,-0.035l-0.008,-0.034l-0.009,-0.035l-0.011,-0.034l-0.01,-0.034l-0.012,-0.033l-0.013,-0.033l-0.013,-0.033l-0.014,-0.032l-0.015,-0.032l-0.016,-0.031l-0.016,-0.031l-0.017,-0.031l-0.018,-0.03l-0.018,-0.029l-0.02,-0.03l-0.02,-0.028l-0.02,-0.029l-0.022,-0.027l-0.021,-0.027l-0.023,-0.027l-0.023,-0.026l-0.024,-0.026l-0.024,-0.025l-0.025,-0.024l-0.026,-0.024l-0.026,-0.023l-0.027,-0.023l-0.027,-0.022l-0.028,-0.021l-0.028,-0.021l-0.029,-0.02l-0.029,-0.019l-0.03,-0.018l-0.03,-0.018l-0.03,-0.017l-0.031,-0.017l-0.032,-0.015l-0.032,-0.015l-0.032,-0.014l-0.032,-0.014l-0.033,-0.012l-0.034,-0.012l-0.033,-0.011l-0.034,-0.01l-0.035,-0.009l-0.035,-0.009l-0.035,-0.007l-0.035,-0.007l-0.036,-0.006l-0.036,-0.005l-0.036,-0.004l-0.037,-0.004l-0.037,-0.002l-0.038,-0.001l-0.042,-0.001l-4.49,0Z" style="fill:#9c9c9c;"/><path d="M38.244,4.467c0,-1.242 -1.008,-2.25 -2.25,-2.25l-4.5,0c-1.242,0 -2.25,1.008 -2.25,2.25l0,4.518c0,1.242 1.008,2.25 2.25,2.25l4.5,0c1.242,0 2.25,-1.008 2.25,-2.25l0,-4.518Z" style="fill:#94d0fe;"/><path d="M36.052,2.218l0.057,0.002l0.058,0.004l0.057,0.005l0.056,0.006l0.056,0.008l0.056,0.009l0.055,0.011l0.055,0.012l0.054,0.013l0.053,0.015l0.054,0.015l0.052,0.017l0.052,0.019l0.051,0.019l0.051,0.021l0.05,0.022l0.05,0.023l0.049,0.024l0.048,0.026l0.047,0.026l0.047,0.028l0.046,0.029l0.09,0.06l0.044,0.032l0.043,0.033l0.042,0.034l0.041,0.035l0.04,0.036l0.04,0.037l0.038,0.037l0.038,0.039l0.037,0.04l0.036,0.04l0.035,0.041l0.034,0.042l0.033,0.043l0.062,0.088l0.03,0.046l0.029,0.046l0.054,0.094l0.025,0.048l0.025,0.049l0.023,0.049l0.022,0.051l0.021,0.05l0.019,0.052l0.036,0.104l0.015,0.053l0.015,0.054l0.013,0.054l0.012,0.055l0.011,0.055l0.009,0.056l0.008,0.056l0.006,0.056l0.005,0.057l0.004,0.057l0.002,0.058l0.001,0.058l0,4.518l-0.001,0.058l-0.002,0.058l-0.004,0.057l-0.005,0.057l-0.006,0.056l-0.008,0.056l-0.009,0.056l-0.011,0.055l-0.012,0.055l-0.013,0.054l-0.015,0.054l-0.015,0.053l-0.018,0.052l-0.018,0.052l-0.019,0.052l-0.021,0.05l-0.022,0.05l-0.023,0.05l-0.025,0.049l-0.025,0.048l-0.027,0.047l-0.027,0.047l-0.029,0.046l-0.03,0.045l-0.031,0.045l-0.031,0.044l-0.033,0.043l-0.034,0.042l-0.035,0.041l-0.036,0.04l-0.037,0.04l-0.038,0.039l-0.038,0.037l-0.04,0.037l-0.04,0.036l-0.041,0.035l-0.042,0.034l-0.043,0.033l-0.044,0.032l-0.045,0.03l-0.045,0.03l-0.046,0.029l-0.047,0.028l-0.047,0.026l-0.048,0.026l-0.049,0.024l-0.05,0.023l-0.05,0.022l-0.051,0.021l-0.051,0.019l-0.052,0.019l-0.052,0.017l-0.054,0.015l-0.053,0.015l-0.054,0.013l-0.055,0.012l-0.055,0.011l-0.056,0.009l-0.056,0.008l-0.056,0.006l-0.057,0.005l-0.058,0.004l-0.057,0.002l-0.058,0.001l-4.5,0l-0.058,-0.001l-0.058,-0.002l-0.057,-0.004l-0.057,-0.005l-0.057,-0.006l-0.056,-0.008l-0.055,-0.009l-0.055,-0.011l-0.055,-0.012l-0.054,-0.013l-0.054,-0.015l-0.053,-0.015l-0.053,-0.017l-0.052,-0.019l-0.051,-0.019l-0.051,-0.021l-0.05,-0.022l-0.049,-0.023l-0.049,-0.024l-0.048,-0.026l-0.048,-0.026l-0.047,-0.028l-0.046,-0.029l-0.045,-0.03l-0.044,-0.03l-0.044,-0.032l-0.043,-0.033l-0.042,-0.034l-0.041,-0.035l-0.041,-0.036l-0.039,-0.037l-0.039,-0.037l-0.038,-0.039l-0.036,-0.04l-0.036,-0.04l-0.035,-0.041l-0.034,-0.042l-0.033,-0.043l-0.032,-0.044l-0.031,-0.045l-0.03,-0.045l-0.028,-0.046l-0.028,-0.047l-0.027,-0.047l-0.025,-0.048l-0.024,-0.049l-0.023,-0.05l-0.022,-0.05l-0.021,-0.05l-0.02,-0.052l-0.018,-0.052l-0.017,-0.052l-0.016,-0.053l-0.014,-0.054l-0.014,-0.054l-0.012,-0.055l-0.01,-0.055l-0.009,-0.056l-0.008,-0.056l-0.007,-0.056l-0.005,-0.057l-0.003,-0.057l-0.003,-0.058l0,-0.058l0,-4.518l0,-0.058l0.003,-0.058l0.003,-0.057l0.005,-0.057l0.007,-0.056l0.008,-0.056l0.009,-0.056l0.01,-0.055l0.012,-0.055l0.014,-0.054l0.014,-0.054l0.016,-0.053l0.017,-0.052l0.018,-0.052l0.02,-0.052l0.021,-0.05l0.022,-0.051l0.023,-0.049l0.024,-0.049l0.025,-0.048l0.027,-0.047l0.028,-0.047l0.028,-0.046l0.03,-0.046l0.031,-0.044l0.032,-0.044l0.033,-0.043l0.034,-0.042l0.035,-0.041l0.036,-0.04l0.036,-0.04l0.038,-0.039l0.039,-0.037l0.039,-0.037l0.041,-0.036l0.041,-0.035l0.042,-0.034l0.043,-0.033l0.044,-0.032l0.044,-0.03l0.045,-0.03l0.046,-0.029l0.047,-0.028l0.048,-0.026l0.048,-0.026l0.049,-0.024l0.049,-0.023l0.05,-0.022l0.051,-0.021l0.051,-0.019l0.052,-0.019l0.053,-0.017l0.053,-0.015l0.054,-0.015l0.054,-0.013l0.055,-0.012l0.055,-0.011l0.055,-0.009l0.056,-0.008l0.057,-0.006l0.057,-0.005l0.057,-0.004l0.058,-0.002l0.058,-0.001l4.5,0l0.058,0.001Zm-4.553,0.799l-0.043,0.001l-0.037,0.001l-0.038,0.002l-0.036,0.004l-0.037,0.004l-0.036,0.005l-0.036,0.006l-0.035,0.007l-0.035,0.007l-0.035,0.009l-0.034,0.009l-0.034,0.01l-0.034,0.011l-0.033,0.012l-0.033,0.012l-0.033,0.014l-0.032,0.014l-0.032,0.015l-0.031,0.015l-0.031,0.017l-0.031,0.017l-0.03,0.018l-0.03,0.018l-0.029,0.019l-0.029,0.02l-0.028,0.021l-0.028,0.021l-0.027,0.022l-0.027,0.023l-0.026,0.023l-0.025,0.024l-0.025,0.024l-0.025,0.025l-0.023,0.026l-0.024,0.026l-0.022,0.027l-0.022,0.027l-0.021,0.027l-0.021,0.029l-0.02,0.028l-0.019,0.03l-0.019,0.029l-0.017,0.03l-0.018,0.031l-0.016,0.031l-0.016,0.031l-0.014,0.032l-0.015,0.032l-0.013,0.033l-0.012,0.033l-0.012,0.033l-0.011,0.034l-0.01,0.034l-0.01,0.035l-0.008,0.034l-0.008,0.035l-0.007,0.036l-0.005,0.036l-0.006,0.036l-0.004,0.036l-0.003,0.037l-0.002,0.037l-0.002,0.037l0,4.594l0.004,0.074l0.003,0.037l0.004,0.036l0.006,0.036l0.005,0.036l0.007,0.036l0.008,0.035l0.008,0.034l0.01,0.035l0.01,0.034l0.011,0.034l0.024,0.066l0.013,0.032l0.015,0.033l0.014,0.032l0.032,0.062l0.018,0.03l0.017,0.031l0.019,0.029l0.019,0.03l0.02,0.028l0.042,0.056l0.044,0.054l0.024,0.026l0.023,0.026l0.025,0.025l0.05,0.048l0.026,0.023l0.027,0.023l0.027,0.022l0.056,0.042l0.029,0.019l0.029,0.02l0.06,0.036l0.062,0.034l0.031,0.015l0.032,0.015l0.032,0.014l0.066,0.026l0.033,0.012l0.034,0.011l0.034,0.01l0.034,0.009l0.035,0.009l0.07,0.014l0.036,0.006l0.036,0.005l0.037,0.004l0.036,0.004l0.038,0.002l0.037,0.001l0.043,0.001l4.49,0l0.042,-0.001l0.038,-0.001l0.037,-0.002l0.037,-0.004l0.036,-0.004l0.036,-0.005l0.036,-0.006l0.035,-0.007l0.035,-0.007l0.035,-0.009l0.035,-0.009l0.034,-0.01l0.033,-0.011l0.034,-0.012l0.033,-0.013l0.032,-0.013l0.033,-0.014l0.031,-0.015l0.032,-0.015l0.031,-0.017l0.03,-0.017l0.03,-0.018l0.03,-0.018l0.029,-0.02l0.029,-0.019l0.028,-0.021l0.028,-0.021l0.027,-0.022l0.027,-0.023l0.026,-0.023l0.026,-0.024l0.025,-0.024l0.024,-0.025l0.024,-0.026l0.023,-0.026l0.023,-0.027l0.022,-0.027l0.021,-0.028l0.02,-0.028l0.02,-0.028l0.02,-0.03l0.018,-0.029l0.018,-0.03l0.017,-0.031l0.016,-0.031l0.016,-0.031l0.015,-0.032l0.014,-0.033l0.013,-0.032l0.013,-0.033l0.012,-0.033l0.011,-0.034l0.01,-0.034l0.009,-0.035l0.009,-0.034l0.007,-0.035l0.007,-0.036l0.006,-0.036l0.005,-0.036l0.004,-0.036l0.003,-0.037l0.003,-0.037l0.001,-0.037l0.001,-0.043l0,-4.508l-0.001,-0.043l-0.001,-0.037l-0.003,-0.037l-0.003,-0.037l-0.004,-0.036l-0.005,-0.036l-0.006,-0.036l-0.007,-0.036l-0.007,-0.035l-0.009,-0.034l-0.009,-0.035l-0.01,-0.034l-0.011,-0.034l-0.012,-0.033l-0.013,-0.033l-0.013,-0.033l-0.014,-0.032l-0.015,-0.032l-0.016,-0.031l-0.016,-0.031l-0.017,-0.031l-0.018,-0.03l-0.018,-0.029l-0.02,-0.03l-0.02,-0.028l-0.02,-0.029l-0.021,-0.027l-0.022,-0.027l-0.023,-0.027l-0.023,-0.026l-0.024,-0.026l-0.024,-0.025l-0.025,-0.024l-0.026,-0.024l-0.026,-0.023l-0.027,-0.023l-0.027,-0.022l-0.028,-0.021l-0.028,-0.021l-0.029,-0.02l-0.029,-0.019l-0.03,-0.018l-0.03,-0.018l-0.03,-0.017l-0.031,-0.017l-0.032,-0.015l-0.031,-0.015l-0.033,-0.014l-0.032,-0.014l-0.033,-0.012l-0.034,-0.012l-0.033,-0.011l-0.034,-0.01l-0.035,-0.009l-0.035,-0.009l-0.035,-0.007l-0.035,-0.007l-0.036,-0.006l-0.036,-0.005l-0.036,-0.004l-0.037,-0.004l-0.037,-0.002l-0.038,-0.001l-0.042,-0.001l-4.49,0Z" style="fill:#697e91;"/><path d="M51.75,4.467c0,-1.242 -1.008,-2.25 -2.25,-2.25l-4.5,0c-1.242,0 -2.25,1.008 -2.25,2.25l0,4.518c0,1.242 1.008,2.25 2.25,2.25l4.5,0c1.242,0 2.25,-1.008 2.25,-2.25l0,-4.518Z" style="fill:#ededed;"/><path d="M49.558,2.218l0.058,0.002l0.057,0.004l0.057,0.005l0.056,0.006l0.056,0.008l0.056,0.009l0.055,0.011l0.055,0.012l0.054,0.013l0.054,0.015l0.053,0.015l0.052,0.017l0.104,0.038l0.05,0.021l0.051,0.022l0.049,0.023l0.049,0.024l0.096,0.052l0.046,0.028l0.046,0.029l0.046,0.03l0.044,0.03l0.044,0.032l0.043,0.033l0.042,0.034l0.041,0.035l0.041,0.036l0.078,0.074l0.037,0.039l0.037,0.04l0.036,0.04l0.035,0.041l0.034,0.042l0.033,0.043l0.032,0.044l0.031,0.044l0.058,0.092l0.028,0.047l0.026,0.047l0.026,0.048l0.024,0.049l0.023,0.049l0.022,0.051l0.021,0.05l0.038,0.104l0.017,0.052l0.016,0.053l0.014,0.054l0.013,0.054l0.012,0.055l0.011,0.055l0.009,0.056l0.008,0.056l0.006,0.056l0.005,0.057l0.004,0.057l0.002,0.058l0.001,0.058l0,4.518l-0.001,0.058l-0.002,0.058l-0.004,0.057l-0.005,0.057l-0.006,0.056l-0.008,0.056l-0.009,0.056l-0.011,0.055l-0.012,0.055l-0.013,0.054l-0.014,0.054l-0.016,0.053l-0.017,0.052l-0.019,0.052l-0.019,0.052l-0.021,0.05l-0.022,0.05l-0.023,0.05l-0.024,0.049l-0.026,0.048l-0.026,0.047l-0.028,0.047l-0.029,0.046l-0.029,0.045l-0.031,0.045l-0.032,0.044l-0.033,0.043l-0.034,0.042l-0.035,0.041l-0.036,0.04l-0.037,0.04l-0.037,0.039l-0.039,0.037l-0.039,0.037l-0.041,0.036l-0.041,0.035l-0.042,0.034l-0.043,0.033l-0.044,0.032l-0.044,0.03l-0.046,0.03l-0.046,0.029l-0.046,0.028l-0.048,0.026l-0.048,0.026l-0.049,0.024l-0.049,0.023l-0.051,0.022l-0.05,0.021l-0.052,0.019l-0.052,0.019l-0.052,0.017l-0.053,0.015l-0.054,0.015l-0.054,0.013l-0.055,0.012l-0.055,0.011l-0.056,0.009l-0.056,0.008l-0.056,0.006l-0.057,0.005l-0.057,0.004l-0.058,0.002l-0.058,0.001l-4.5,0l-0.058,-0.001l-0.058,-0.002l-0.057,-0.004l-0.057,-0.005l-0.056,-0.006l-0.056,-0.008l-0.056,-0.009l-0.055,-0.011l-0.055,-0.012l-0.054,-0.013l-0.054,-0.015l-0.053,-0.015l-0.052,-0.017l-0.052,-0.019l-0.052,-0.019l-0.05,-0.021l-0.051,-0.022l-0.049,-0.023l-0.049,-0.024l-0.048,-0.026l-0.048,-0.026l-0.046,-0.028l-0.046,-0.029l-0.046,-0.03l-0.044,-0.03l-0.044,-0.032l-0.043,-0.033l-0.042,-0.034l-0.041,-0.035l-0.041,-0.036l-0.039,-0.037l-0.039,-0.037l-0.037,-0.039l-0.037,-0.04l-0.036,-0.04l-0.035,-0.041l-0.034,-0.042l-0.033,-0.043l-0.032,-0.044l-0.031,-0.045l-0.029,-0.045l-0.029,-0.046l-0.028,-0.047l-0.026,-0.047l-0.026,-0.048l-0.024,-0.049l-0.023,-0.05l-0.022,-0.05l-0.021,-0.05l-0.019,-0.052l-0.019,-0.052l-0.017,-0.052l-0.016,-0.053l-0.014,-0.054l-0.013,-0.054l-0.012,-0.055l-0.011,-0.055l-0.009,-0.056l-0.008,-0.056l-0.006,-0.056l-0.005,-0.057l-0.004,-0.057l-0.002,-0.058l-0.001,-0.058l0,-4.518l0.001,-0.058l0.002,-0.058l0.004,-0.057l0.005,-0.057l0.006,-0.056l0.008,-0.056l0.009,-0.056l0.011,-0.055l0.012,-0.055l0.013,-0.054l0.014,-0.054l0.016,-0.053l0.017,-0.052l0.019,-0.052l0.019,-0.052l0.021,-0.05l0.022,-0.051l0.023,-0.049l0.024,-0.049l0.026,-0.048l0.026,-0.047l0.028,-0.047l0.029,-0.046l0.029,-0.046l0.031,-0.044l0.032,-0.044l0.033,-0.043l0.034,-0.042l0.035,-0.041l0.036,-0.04l0.037,-0.04l0.037,-0.039l0.039,-0.037l0.039,-0.037l0.041,-0.036l0.041,-0.035l0.042,-0.034l0.043,-0.033l0.044,-0.032l0.044,-0.03l0.046,-0.03l0.046,-0.029l0.046,-0.028l0.048,-0.026l0.048,-0.026l0.049,-0.024l0.049,-0.023l0.051,-0.022l0.05,-0.021l0.052,-0.019l0.052,-0.019l0.052,-0.017l0.053,-0.015l0.054,-0.015l0.054,-0.013l0.055,-0.012l0.055,-0.011l0.056,-0.009l0.056,-0.008l0.056,-0.006l0.057,-0.005l0.057,-0.004l0.058,-0.002l0.058,-0.001l4.5,0l0.058,0.001Zm-4.553,0.799l-0.043,0.001l-0.037,0.001l-0.037,0.002l-0.037,0.004l-0.036,0.004l-0.036,0.005l-0.036,0.006l-0.036,0.007l-0.035,0.007l-0.034,0.009l-0.035,0.009l-0.034,0.01l-0.034,0.011l-0.033,0.012l-0.033,0.012l-0.033,0.014l-0.032,0.014l-0.032,0.015l-0.031,0.015l-0.031,0.017l-0.031,0.017l-0.03,0.018l-0.029,0.018l-0.03,0.019l-0.028,0.02l-0.029,0.021l-0.027,0.021l-0.028,0.022l-0.026,0.023l-0.026,0.023l-0.026,0.024l-0.025,0.024l-0.024,0.025l-0.024,0.026l-0.023,0.026l-0.023,0.027l-0.022,0.027l-0.021,0.027l-0.021,0.029l-0.02,0.028l-0.019,0.03l-0.018,0.029l-0.018,0.03l-0.017,0.031l-0.017,0.031l-0.015,0.031l-0.015,0.032l-0.014,0.032l-0.014,0.033l-0.012,0.033l-0.012,0.033l-0.011,0.034l-0.01,0.034l-0.009,0.035l-0.009,0.034l-0.007,0.035l-0.007,0.036l-0.006,0.036l-0.005,0.036l-0.004,0.036l-0.004,0.037l-0.002,0.037l-0.001,0.037l-0.001,0.043l0,4.508l0.001,0.043l0.001,0.037l0.002,0.037l0.004,0.037l0.004,0.036l0.005,0.036l0.006,0.036l0.007,0.036l0.007,0.035l0.009,0.034l0.009,0.035l0.01,0.034l0.011,0.034l0.024,0.066l0.014,0.032l0.014,0.033l0.015,0.032l0.015,0.031l0.017,0.031l0.017,0.03l0.018,0.031l0.018,0.029l0.019,0.03l0.02,0.028l0.042,0.056l0.022,0.027l0.023,0.027l0.023,0.026l0.024,0.026l0.024,0.025l0.025,0.024l0.026,0.024l0.052,0.046l0.028,0.022l0.027,0.021l0.029,0.021l0.028,0.019l0.03,0.02l0.029,0.018l0.03,0.018l0.062,0.034l0.031,0.015l0.032,0.015l0.032,0.014l0.066,0.026l0.033,0.012l0.034,0.011l0.034,0.01l0.034,0.009l0.035,0.009l0.035,0.007l0.036,0.007l0.036,0.006l0.036,0.005l0.036,0.004l0.037,0.004l0.037,0.002l0.037,0.001l0.043,0.001l4.49,0l0.043,-0.001l0.037,-0.001l0.037,-0.002l0.037,-0.004l0.036,-0.004l0.036,-0.005l0.036,-0.006l0.036,-0.007l0.035,-0.007l0.035,-0.009l0.034,-0.009l0.034,-0.01l0.034,-0.011l0.033,-0.012l0.033,-0.013l0.033,-0.013l0.032,-0.014l0.032,-0.015l0.031,-0.015l0.031,-0.017l0.031,-0.017l0.03,-0.018l0.029,-0.018l0.03,-0.02l0.028,-0.019l0.029,-0.021l0.027,-0.021l0.028,-0.022l0.026,-0.023l0.026,-0.023l0.026,-0.024l0.025,-0.024l0.024,-0.025l0.024,-0.026l0.023,-0.026l0.023,-0.027l0.022,-0.027l0.021,-0.028l0.021,-0.028l0.02,-0.028l0.019,-0.03l0.018,-0.029l0.018,-0.03l0.017,-0.031l0.017,-0.031l0.015,-0.031l0.015,-0.032l0.014,-0.033l0.014,-0.032l0.012,-0.033l0.012,-0.033l0.011,-0.034l0.01,-0.034l0.009,-0.035l0.009,-0.034l0.007,-0.035l0.007,-0.036l0.006,-0.036l0.005,-0.036l0.004,-0.036l0.004,-0.037l0.002,-0.037l0.001,-0.037l0.001,-0.043l0,-4.508l-0.001,-0.043l-0.001,-0.037l-0.002,-0.037l-0.004,-0.037l-0.004,-0.036l-0.005,-0.036l-0.006,-0.036l-0.007,-0.036l-0.007,-0.035l-0.009,-0.034l-0.009,-0.035l-0.01,-0.034l-0.011,-0.034l-0.012,-0.033l-0.012,-0.033l-0.014,-0.033l-0.014,-0.032l-0.015,-0.032l-0.015,-0.031l-0.017,-0.031l-0.017,-0.031l-0.018,-0.03l-0.018,-0.029l-0.019,-0.03l-0.02,-0.028l-0.021,-0.029l-0.021,-0.027l-0.022,-0.027l-0.023,-0.027l-0.023,-0.026l-0.024,-0.026l-0.024,-0.025l-0.025,-0.024l-0.026,-0.024l-0.026,-0.023l-0.026,-0.023l-0.028,-0.022l-0.027,-0.021l-0.029,-0.021l-0.028,-0.02l-0.03,-0.019l-0.029,-0.018l-0.03,-0.018l-0.031,-0.017l-0.031,-0.017l-0.031,-0.015l-0.032,-0.015l-0.032,-0.014l-0.033,-0.014l-0.033,-0.012l-0.033,-0.012l-0.034,-0.011l-0.034,-0.01l-0.035,-0.009l-0.034,-0.009l-0.035,-0.007l-0.036,-0.007l-0.036,-0.006l-0.036,-0.005l-0.036,-0.004l-0.037,-0.004l-0.037,-0.002l-0.037,-0.001l-0.043,-0.001l-4.49,0Z" style="fill:#9c9c9c;"/><path d="M8.99,4.905l0.027,0.003l0.026,0.005l0.026,0.007l0.025,0.008l0.025,0.01l0.024,0.012l0.023,0.013l0.023,0.015l0.021,0.016l0.02,0.017l0.019,0.019l0.018,0.02l0.016,0.022l0.015,0.022l0.013,0.023l0.011,0.024l0.01,0.025l0.009,0.025l0.006,0.026l0.005,0.027l0.003,0.026l0.002,0.027l-0.001,0.027l-0.002,0.026l-0.004,0.027l-0.006,0.026l-0.007,0.025l-0.009,0.025l-0.011,0.025l-0.013,0.024l-0.014,0.022l-0.015,0.022l-0.017,0.021l-0.018,0.019l-3.127,3.127l-0.331,0l-1.68,-1.68l-0.018,-0.02l-0.017,-0.02l-0.015,-0.022l-0.014,-0.023l-0.013,-0.024l-0.011,-0.024l-0.009,-0.025l-0.007,-0.026l-0.006,-0.026l-0.004,-0.026l-0.002,-0.027l-0.001,-0.027l0.001,-0.026l0.004,-0.027l0.004,-0.026l0.007,-0.026l0.008,-0.026l0.01,-0.024l0.012,-0.024l0.013,-0.024l0.015,-0.022l0.016,-0.021l0.018,-0.02l0.019,-0.019l0.02,-0.018l0.021,-0.016l0.022,-0.015l0.024,-0.013l0.024,-0.012l0.025,-0.01l0.025,-0.008l0.026,-0.007l0.026,-0.004l0.027,-0.004l0.026,-0.001l0.027,0.001l0.027,0.002l0.026,0.004l0.026,0.006l0.026,0.007l0.025,0.009l0.024,0.011l0.024,0.012l0.023,0.014l0.022,0.016l0.02,0.017l0.02,0.018l1.28,1.28l2.726,-2.726l0.02,-0.019l0.02,-0.017l0.022,-0.015l0.023,-0.014l0.023,-0.013l0.025,-0.01l0.025,-0.01l0.026,-0.007l0.026,-0.006l0.026,-0.004l0.027,-0.002l0.027,0l0.026,0.001Z"/><path d="M36.042,4.905l0.027,0.003l0.026,0.005l0.026,0.007l0.026,0.008l0.024,0.01l0.024,0.012l0.024,0.013l0.022,0.015l0.021,0.016l0.02,0.017l0.019,0.019l0.018,0.02l0.016,0.022l0.015,0.022l0.013,0.023l0.012,0.024l0.01,0.025l0.008,0.025l0.007,0.026l0.005,0.027l0.003,0.026l0.001,0.027l0,0.027l-0.003,0.026l-0.004,0.027l-0.005,0.026l-0.008,0.025l-0.009,0.025l-0.011,0.025l-0.012,0.024l-0.014,0.022l-0.016,0.022l-0.017,0.021l-0.018,0.019l-3.126,3.127l-0.332,0l-1.68,-1.68l-0.018,-0.02l-0.017,-0.02l-0.015,-0.022l-0.014,-0.023l-0.013,-0.024l-0.011,-0.024l-0.009,-0.025l-0.007,-0.026l-0.006,-0.026l-0.004,-0.026l-0.002,-0.027l-0.001,-0.027l0.002,-0.026l0.003,-0.027l0.005,-0.026l0.006,-0.026l0.009,-0.026l0.01,-0.024l0.011,-0.024l0.014,-0.024l0.014,-0.022l0.017,-0.021l0.017,-0.02l0.019,-0.019l0.02,-0.018l0.021,-0.016l0.023,-0.015l0.023,-0.013l0.024,-0.012l0.025,-0.01l0.025,-0.008l0.026,-0.007l0.026,-0.004l0.027,-0.004l0.027,-0.001l0.026,0.001l0.027,0.002l0.026,0.004l0.026,0.006l0.026,0.007l0.025,0.009l0.025,0.011l0.023,0.012l0.023,0.014l0.022,0.016l0.021,0.017l0.019,0.018l1.28,1.28l2.726,-2.726l0.02,-0.019l0.02,-0.017l0.022,-0.015l0.023,-0.014l0.024,-0.013l0.024,-0.01l0.025,-0.01l0.026,-0.007l0.026,-0.006l0.026,-0.004l0.027,-0.002l0.027,0l0.026,0.001Z"/></g></svg>